<?xml version="1.0" encoding="utf-8"?>
<!-- Generator: Adobe Illustrator 26.0.2, SVG Export Plug-In . SVG Version: 6.00 Build 0)  -->
<svg version="1.1" id="圖層_1" xmlns="http://www.w3.org/2000/svg" xmlns:xlink="http://www.w3.org/1999/xlink" x="0px" y="0px"
	 viewBox="0 0 192 192" style="enable-background:new 0 0 192 192;" xml:space="preserve">
<style type="text/css">
	.st0{clip-path:url(#SVGID_00000157998995681753163200000008202953142375961254_);}
	.st1{fill:#009F99;}
	.st2{fill:#00A19B;}
	.st3{fill:none;stroke:#00A19B;stroke-width:8;stroke-linecap:round;stroke-linejoin:round;}
</style>
<g id="轉外框">
	<g>
		<defs>
			<rect id="SVGID_1_" width="192" height="192"/>
		</defs>
		<clipPath id="SVGID_00000124860305641399915280000009764372207084022192_">
			<use xlink:href="#SVGID_1_"  style="overflow:visible;"/>
		</clipPath>
		<g style="clip-path:url(#SVGID_00000124860305641399915280000009764372207084022192_);">
			<path class="st1" d="M84,95.5c-2.6,0-4.9,0-7.3,0c-1.9,0-2.1-0.2-2.1-2.2c0-3.8,0-7.7,0-11.5c0-1.4,0.4-2.1,1.9-2
				c1.9,0.1,3.7-0.1,5.6,0.1c1.7,0.1,2-0.5,1.9-2c0-4.4-0.1-8.8,0.2-13.2c0.5-7.4,7.3-14,14.8-14.3c5.6-0.2,11.2,0,16.8-0.1
				c1.1,0,1.6,0.5,1.5,1.6c0,4.1,0,8.2,0,12.3c0,1.2-0.4,1.7-1.6,1.7c-2.6,0-5.3,0-7.9,0c-3.4,0-5.1,1.7-5.1,5c0,2.5,0.1,5,0,7.4
				c-0.1,1.3,0.4,1.6,1.6,1.6c3.5-0.1,7,0,10.6,0c2.2,0,2.3,0,2.1,2.2c-0.3,4-0.6,8-1,12.1c-0.1,1.2-0.8,1.4-1.8,1.4
				c-3.3,0-6.5,0.1-9.8,0c-1.4,0-1.8,0.4-1.8,1.7c0,14.1,0,28.1,0,42.2c0,2.1,0,2.1-2.2,2.2c-4.7,0-9.5,0-14.3,0
				c-2.1,0-2.2-0.1-2.2-2.3c0-13.8,0-27.6,0-41.4L84,95.5z"/>
			<path class="st2" d="M96,172c-42,0-76-34-76-76s34-76,76-76s76,34,76,76C172,138,138,172,96,172z M96,28c-37.6,0-68,30.4-68,68
				s30.4,68,68,68s68-30.4,68-68C164,58.5,133.5,28,96,28z"/>
		</g>
	</g>
</g>
<g id="設計圖層">
	<path class="st1" d="M84,95.5c-2.6,0-4.9,0-7.3,0c-1.9,0-2.1-0.2-2.1-2.2c0-3.8,0-7.7,0-11.5c0-1.4,0.4-2.1,1.9-2
		c1.9,0.1,3.7-0.1,5.6,0.1c1.7,0.1,2-0.5,1.9-2c0-4.4-0.1-8.8,0.2-13.2c0.5-7.4,7.3-14,14.8-14.3c5.6-0.2,11.2,0,16.8-0.1
		c1.1,0,1.6,0.5,1.5,1.6c0,4.1,0,8.2,0,12.3c0,1.2-0.4,1.7-1.6,1.7c-2.6,0-5.3,0-7.9,0c-3.4,0-5.1,1.7-5.1,5c0,2.5,0.1,5,0,7.4
		c-0.1,1.3,0.4,1.6,1.6,1.6c3.5-0.1,7,0,10.6,0c2.2,0,2.3,0,2.1,2.2c-0.3,4-0.6,8-1,12.1c-0.1,1.2-0.8,1.4-1.8,1.4
		c-3.3,0-6.5,0.1-9.8,0c-1.4,0-1.8,0.4-1.8,1.7c0,14.1,0,28.1,0,42.2c0,2.1,0,2.1-2.2,2.2c-4.7,0-9.5,0-14.3,0
		c-2.1,0-2.2-0.1-2.2-2.3c0-13.8,0-27.6,0-41.4L84,95.5z"/>
	<circle class="st3" cx="96" cy="96" r="72"/>
</g>
</svg>
