<?xml version="1.0" encoding="utf-8"?>
<!-- Generator: Adobe Illustrator 26.0.2, SVG Export Plug-In . SVG Version: 6.00 Build 0)  -->
<svg version="1.1" id="圖層_1" xmlns="http://www.w3.org/2000/svg" xmlns:xlink="http://www.w3.org/1999/xlink" x="0px" y="0px"
	 viewBox="0 0 192 192" style="enable-background:new 0 0 192 192;" xml:space="preserve">
<style type="text/css">
	.st0{clip-path:url(#SVGID_00000021116689978408405410000004028792277737067687_);}
	.st1{fill:#009B95;}
	.st2{fill:#00A19B;}
	.st3{fill:none;stroke:#009B95;stroke-width:8;stroke-miterlimit:10;}
</style>
<g id="轉外框">
	<g>
		<defs>
			<rect id="SVGID_1_" width="192" height="192"/>
		</defs>
		<clipPath id="SVGID_00000119817291305599343610000006533189788575688320_">
			<use xlink:href="#SVGID_1_"  style="overflow:visible;"/>
		</clipPath>
		<g style="clip-path:url(#SVGID_00000119817291305599343610000006533189788575688320_);">
			<path class="st1" d="M91.9,169.1c-1.5,0-3-0.5-4.2-1.5c-1-0.8-2.5-2.8-2.1-6.4c0.2-1.7,0.4-3.4,0.7-5s0.5-3.1,0.6-4.6
				c0.3-2.8,0.3-2.8-2.3-3.4c-1.6-0.4-3.2-0.7-5-1s-3.3-0.6-5-1c-18.5-4.5-32.5-13.2-42.8-26.5C22.8,108,18.9,95,20.2,80.9
				c1.1-12.3,6.3-23.4,15.3-33.1c11.4-12.2,26.2-20,44.1-23.2c3.9-0.7,7.9-1.1,10.8-1.3l2.7-0.2h0.3h0.2c22.8,0.4,40.3,6,55.1,17.8
				c11.4,9,18.7,20.1,21.7,32.9c3.7,15.7,0.6,30.5-9.2,44.1c-5.4,7.5-12.3,14.5-21.6,22c-12.3,10.1-25.4,19-39.3,26.7
				c-1.9,1-4,1.8-6.1,2.4C93.5,169,92.7,169.1,91.9,169.1z M93.8,31c-0.8,0.1-1.6,0.2-2.6,0.2c-2.9,0.3-6.5,0.6-10.1,1.2
				c-16.3,3-29.3,9.8-39.6,20.8c-7.8,8.4-12.2,17.9-13.2,28.4c-1.1,12.1,2.2,23.2,10,33.1c9.2,11.9,21.8,19.6,38.4,23.7
				c1.5,0.4,3,0.6,4.5,0.9c1.8,0.3,3.7,0.7,5.6,1.1c6.5,1.7,9,5.4,8.2,12.1c-0.2,1.7-0.4,3.3-0.7,4.9c-0.2,1.1-0.3,2.1-0.5,3.1
				c0.9-0.3,1.9-0.7,2.7-1.2c13.5-7.4,26.2-16.1,38.1-25.9c8.8-7.1,15.2-13.6,20.2-20.5c8.4-11.6,11-24.2,7.9-37.6
				c-2.6-11.2-8.8-20.5-18.9-28.5C130.5,36.4,114.6,31.3,93.8,31z"/>
			<path class="st2" d="M108.9,91l-0.4,0.1c-1-1.4-2.1-2.8-3.1-4.2c-3.8-5.2-7.6-10.4-11.4-15.5c-1.2-1.7-2.8-2.2-4.3-1.7
				c-1.6,0.5-2.7,2-2.7,3.7c0,9.7,0,19.5,0,29.2c0,1.6,1,3.1,2.5,3.7c2.6,0.9,5.1-0.9,5.1-3.9c0-5.3,0-10.6,0-15.9V85
				c0.6,0.4,1.1,0.9,1.4,1.5c4.4,6,8.8,12,13.2,18c1.3,1.8,2.8,2.4,4.5,1.8s2.7-2,2.7-4.2c0-6.4,0-12.7,0-19.1c0-3.3,0-6.6,0-9.9
				c-0.1-2.1-1.9-3.7-4-3.6c-1.5,0.1-2.8,1-3.3,2.4c-0.2,0.9-0.3,1.8-0.3,2.7c0,4.9,0,9.8,0,14.8L108.9,91z"/>
			<path class="st2" d="M129.5,98.8v-7h1.6c2.9,0,5.8,0,8.7,0c2.1,0.2,3.9-1.4,4.1-3.5s-1.4-3.9-3.5-4.1c-0.2,0-0.4,0-0.6,0
				c-2.4,0-4.8,0-7.2,0h-3.2v-7.1h10.3c2.5,0,4.2-1.5,4.2-3.7c0-2.2-1.7-3.9-3.9-3.9c0,0-0.1,0-0.1,0c-4.7-0.1-9.4,0-14.2,0
				c-2.1-0.1-3.9,1.5-4,3.5c0,0.2,0,0.4,0,0.6c0,9.6,0,19.2,0,28.8c-0.2,2.1,1.4,4,3.5,4.2c0.2,0,0.5,0,0.7,0c4.5,0,9.1,0,13.6,0
				c2.6,0,4.4-1.7,4.4-3.9s-1.8-3.8-4.4-3.8L129.5,98.8z"/>
			<path class="st2" d="M55.7,98.8v-8c0-5.8,0-11.6,0-17.3c0.1-2.2-1.6-4-3.7-4.1c0,0,0,0,0,0c-2.1-0.1-3.9,1.6-4,3.7
				c0,0.1,0,0.1,0,0.2c0,9.7,0,19.5,0,29.2c-0.1,2.1,1.6,3.9,3.7,3.9c0.1,0,0.2,0,0.3,0c4.8,0.1,9.6,0.1,14.4,0
				c2.1,0.1,3.9-1.6,4-3.7c0.1-2.1-1.6-3.9-3.7-4c-0.1,0-0.2,0-0.4,0C62.8,98.8,59.3,98.8,55.7,98.8z"/>
			<path class="st2" d="M73.8,87.9c0,4.7,0,9.4,0,14.2c0,2.6,1.6,4.5,3.8,4.5s3.9-1.8,3.9-4.4c0-9.4,0-18.9,0-28.3
				c0-2.5-1.6-4.3-3.8-4.3s-3.8,1.8-3.8,4.4C73.8,78.5,73.8,83.2,73.8,87.9z"/>
		</g>
	</g>
</g>
<g id="設計圖層">
	<path class="st3" d="M93.6,26.9c21,0.3,38,5.2,52.7,16.9c10.1,8,17.3,18,20.3,30.7c3.5,14.9,0.3,28.5-8.6,40.8
		c-5.9,8.2-13.1,15-20.9,21.3c-12.1,9.9-25,18.7-38.7,26.3c-1.6,0.9-3.4,1.5-5.2,2c-2.6,0.7-3.9-0.6-3.6-3.2c0.4-3.2,1-6.4,1.3-9.6
		c0.5-4.7-0.7-6.6-5.3-7.8c-3.3-0.9-6.7-1.2-10-2c-16.2-4-30.2-11.7-40.6-25.1c-8.2-10.6-12-22.6-10.8-35.9
		c1.1-11.9,6.2-22.1,14.3-30.7c11.4-12.2,25.6-19.1,41.9-22C85.5,27.5,90.8,27.3,93.6,26.9z"/>
	<path class="st2" d="M108.9,91l-0.4,0.1c-1-1.4-2.1-2.8-3.1-4.2c-3.8-5.2-7.6-10.4-11.4-15.5c-1.2-1.7-2.8-2.2-4.3-1.7
		c-1.6,0.5-2.7,2-2.7,3.7c0,9.7,0,19.5,0,29.2c0,1.6,1,3.1,2.5,3.7c2.6,0.9,5.1-0.9,5.1-3.9c0-5.3,0-10.6,0-15.9V85
		c0.6,0.4,1.1,0.9,1.4,1.5c4.4,6,8.8,12,13.2,18c1.3,1.8,2.8,2.4,4.5,1.8s2.7-2,2.7-4.2c0-6.4,0-12.7,0-19.1c0-3.3,0-6.6,0-9.9
		c-0.1-2.1-1.9-3.7-4-3.6c-1.5,0.1-2.8,1-3.3,2.4c-0.2,0.9-0.3,1.8-0.3,2.7c0,4.9,0,9.8,0,14.8L108.9,91z"/>
	<path class="st2" d="M129.5,98.8v-7h1.6c2.9,0,5.8,0,8.7,0c2.1,0.2,3.9-1.4,4.1-3.5s-1.4-3.9-3.5-4.1c-0.2,0-0.4,0-0.6,0
		c-2.4,0-4.8,0-7.2,0h-3.2v-7.1h10.3c2.5,0,4.2-1.5,4.2-3.7c0-2.2-1.7-3.9-3.9-3.9c0,0-0.1,0-0.1,0c-4.7-0.1-9.4,0-14.2,0
		c-2.1-0.1-3.9,1.5-4,3.5c0,0.2,0,0.4,0,0.6c0,9.6,0,19.2,0,28.8c-0.2,2.1,1.4,4,3.5,4.2c0.2,0,0.5,0,0.7,0c4.5,0,9.1,0,13.6,0
		c2.6,0,4.4-1.7,4.4-3.9s-1.8-3.8-4.4-3.8L129.5,98.8z"/>
	<path class="st2" d="M55.7,98.8v-8c0-5.8,0-11.6,0-17.3c0.1-2.2-1.6-4-3.7-4.1c0,0,0,0,0,0c-2.1-0.1-3.9,1.6-4,3.7
		c0,0.1,0,0.1,0,0.2c0,9.7,0,19.5,0,29.2c-0.1,2.1,1.6,3.9,3.7,3.9c0.1,0,0.2,0,0.3,0c4.8,0.1,9.6,0.1,14.4,0c2.1,0.1,3.9-1.6,4-3.7
		c0.1-2.1-1.6-3.9-3.7-4c-0.1,0-0.2,0-0.4,0C62.8,98.8,59.3,98.8,55.7,98.8z"/>
	<path class="st2" d="M73.8,87.9c0,4.7,0,9.4,0,14.2c0,2.6,1.6,4.5,3.8,4.5s3.9-1.8,3.9-4.4c0-9.4,0-18.9,0-28.3
		c0-2.5-1.6-4.3-3.8-4.3s-3.8,1.8-3.8,4.4C73.8,78.5,73.8,83.2,73.8,87.9z"/>
</g>
</svg>
